<svg width="88" height="88" viewBox="0 0 88 88" fill="none" xmlns="http://www.w3.org/2000/svg">
<path fill-rule="evenodd" clip-rule="evenodd" d="M43.93 14.365C38.024 14.365 33.235 19.155 33.235 25.061C33.235 30.969 38.024 35.757 43.931 35.757C49.837 35.757 54.626 30.969 54.626 25.061C54.626 19.154 49.836 14.365 43.93 14.365Z" fill="#4298B4"/>
<path fill-rule="evenodd" clip-rule="evenodd" d="M14.365 43.8C14.365 49.707 19.155 54.496 25.061 54.496C30.969 54.496 35.757 49.706 35.757 43.8C35.757 37.892 30.969 33.104 25.061 33.104C19.154 33.104 14.365 37.894 14.365 43.8Z" fill="#88619A"/>
<path fill-rule="evenodd" clip-rule="evenodd" d="M73.417 43.8C73.417 49.707 68.627 54.496 62.721 54.496C56.814 54.496 52.025 49.706 52.025 43.8C52.025 37.892 56.814 33.104 62.721 33.104C68.628 33.104 73.417 37.894 73.417 43.8Z" fill="#E4AE3A"/>
<path fill-rule="evenodd" clip-rule="evenodd" d="M43.93 73.418C38.024 73.418 33.235 68.628 33.235 62.722C33.235 56.814 38.024 52.026 43.931 52.026C49.837 52.026 54.626 56.814 54.626 62.722C54.626 68.629 49.836 73.418 43.93 73.418Z" fill="#33A474"/>
<path d="M21.197 6.206C18.83 6.206 16.904 8.132 16.904 10.499C16.904 12.867 18.83 14.793 21.197 14.793C23.564 14.793 25.489 12.867 25.489 10.499C25.489 8.133 23.564 6.206 21.197 6.206ZM35.558 0C33.191 0 31.265 1.926 31.265 4.293C31.265 6.661 33.191 8.586 35.558 8.586C37.925 8.586 39.851 6.661 39.851 4.293C39.85 1.926 37.925 0 35.558 0ZM52.245 0C49.878 0 47.953 1.926 47.953 4.293C47.953 6.661 49.878 8.586 52.245 8.586C54.612 8.586 56.538 6.661 56.538 4.293C56.538 1.926 54.612 0 52.245 0ZM66.585 6.206C64.218 6.206 62.293 8.132 62.293 10.499C62.293 12.867 64.218 14.793 66.585 14.793C68.952 14.793 70.878 12.867 70.878 10.499C70.878 8.133 68.952 6.206 66.585 6.206Z" fill="#4298B4"/>
<path d="M21.197 72.991C18.83 72.991 16.904 74.917 16.904 77.284C16.904 79.652 18.83 81.578 21.197 81.578C23.564 81.578 25.489 79.652 25.489 77.284C25.489 74.916 23.564 72.991 21.197 72.991ZM35.558 79.197C33.191 79.197 31.265 81.123 31.265 83.49C31.265 85.857 33.191 87.784 35.558 87.784C37.925 87.784 39.851 85.857 39.851 83.49C39.851 81.123 37.925 79.197 35.558 79.197ZM52.245 79.197C49.878 79.197 47.953 81.123 47.953 83.49C47.953 85.857 49.878 87.784 52.245 87.784C54.612 87.784 56.538 85.857 56.538 83.49C56.538 81.123 54.612 79.197 52.245 79.197ZM66.585 72.991C64.218 72.991 62.293 74.917 62.293 77.284C62.293 79.652 64.218 81.578 66.585 81.578C68.952 81.578 70.878 79.652 70.878 77.284C70.878 74.916 68.952 72.991 66.585 72.991Z" fill="#33A474"/>
<path d="M10.5 62.293C8.133 62.293 6.207 64.219 6.207 66.586C6.207 68.954 8.133 70.881 10.5 70.881C12.867 70.881 14.793 68.954 14.793 66.586C14.792 64.218 12.866 62.293 10.5 62.293ZM8.586 52.225C8.586 49.859 6.661 47.932 4.294 47.932C1.926 47.932 0 49.86 0 52.225C0 54.592 1.926 56.519 4.294 56.519C6.66 56.518 8.586 54.592 8.586 52.225ZM4.293 39.831C6.66 39.831 8.585 37.905 8.585 35.538C8.585 33.17 6.66 31.245 4.293 31.245C1.926 31.245 0 33.17 0 35.538C0 37.905 1.926 39.831 4.293 39.831ZM10.5 16.904C8.133 16.904 6.207 18.83 6.207 21.197C6.207 23.564 8.133 25.491 10.5 25.491C12.867 25.491 14.793 23.564 14.793 21.197C14.792 18.83 12.866 16.904 10.5 16.904Z" fill="#88619A"/>
<path d="M77.282 62.293C74.915 62.293 72.989 64.219 72.989 66.586C72.989 68.954 74.915 70.881 77.282 70.881C79.649 70.881 81.575 68.954 81.575 66.586C81.575 64.218 79.649 62.293 77.282 62.293ZM83.49 47.932C81.122 47.932 79.197 49.858 79.197 52.225C79.197 54.593 81.122 56.519 83.489 56.519C85.857 56.519 87.782 54.593 87.782 52.225C87.782 49.858 85.858 47.932 83.49 47.932ZM79.196 35.538C79.196 37.905 81.121 39.831 83.488 39.831C85.857 39.831 87.782 37.905 87.782 35.538C87.782 33.171 85.857 31.246 83.488 31.246C81.122 31.245 79.196 33.17 79.196 35.538ZM77.282 25.49C79.649 25.49 81.575 23.565 81.575 21.198C81.575 18.831 79.649 16.904 77.282 16.904C74.915 16.904 72.989 18.831 72.989 21.198C72.989 23.565 74.916 25.49 77.282 25.49Z" fill="#E4AE3A"/>
</svg>
