<?xml version="1.0" encoding="UTF-8" standalone="no"?>
<!DOCTYPE svg PUBLIC "-//W3C//DTD SVG 1.1//EN" "http://www.w3.org/Graphics/SVG/1.1/DTD/svg11.dtd">
<svg width="100%" height="100%" viewBox="0 0 1932 614" version="1.1" xmlns="http://www.w3.org/2000/svg" xmlns:xlink="http://www.w3.org/1999/xlink" xml:space="preserve" xmlns:serif="http://www.serif.com/" style="fill-rule:evenodd;clip-rule:evenodd;stroke-linejoin:round;stroke-miterlimit:2;">
    <g id="Prancheta1" transform="matrix(2.73598,0,0,2.53762,-2258.62,-1933.33)">
        <rect x="825.527" y="761.866" width="706.036" height="241.84" style="fill:none;"/>
        <clipPath id="_clip1">
            <rect x="825.527" y="761.866" width="706.036" height="241.84"/>
        </clipPath>
        <g clip-path="url(#_clip1)">
            <g transform="matrix(0.3655,0,0,0.394069,825.527,761.866)">
                <path d="M699.167,103.333C619.583,103.333 559.583,159.167 559.583,233.333C559.583,307.5 620.417,363.75 698.333,363.75C745,363.75 781.667,343.75 805.417,315.417L805.417,309.583L759.167,270.417L753.75,270.417C739.583,285.833 720,294.583 699.167,294.583C665.417,296.25 636.667,270 635,235.833C633.333,202.083 659.583,173.333 693.75,171.667L699.167,171.667C720,172.083 739.583,180.833 753.75,195.833L759.167,195.833L805.417,156.25L805.417,150.833C778.75,120.833 740,102.917 699.167,103.333" style="fill:white;fill-rule:nonzero;"/>
                <path d="M844.167,358.75L1036.67,358.75L1036.67,295.833L920.833,295.833L920.833,260.417L1007.92,260.417L1007.92,201.667L920.833,201.667L920.833,166.25L1036.67,166.25L1036.67,103.333L844.167,103.333L844.167,358.75Z" style="fill:white;fill-rule:nonzero;"/>
                <path d="M1892.92,270.417L1862.5,202.5L1817.92,103.333L1747.5,103.333L1640.42,358.75L1720.84,358.75L1735,320.417L1830.42,320.417C1836.67,332.5 1845,342.917 1855,352.083C1866.25,360.417 1880.42,364.583 1894.59,363.75C1907.5,364.167 1920,361.25 1931.25,355.417L1897.09,279.167C1895.84,276.667 1894.59,273.75 1892.92,270.417M1755,269.583L1783.34,193.75L1810,269.583L1755,269.583Z" style="fill:white;fill-rule:nonzero;"/>
                <path d="M1317.5,270.417L1287.08,202.5L1242.92,103.333L1172.5,103.333L1065.42,358.75L1145.83,358.75L1160,320.417L1255.42,320.417C1261.67,332.5 1270,342.917 1280,352.083C1291.25,360.417 1305.42,364.583 1319.58,363.75C1332.5,364.167 1345,361.25 1356.25,355.417L1321.67,279.167C1320,276.667 1318.75,273.75 1317.5,270.417M1179.17,269.583L1207.5,193.333L1234.17,269.167L1179.17,269.583Z" style="fill:white;fill-rule:nonzero;"/>
                <path d="M1560.42,258.75C1588.34,246.25 1606.67,222.083 1606.67,188.75C1606.67,136.667 1571.25,103.333 1505,103.333L1385.84,103.333L1385.84,358.75L1462.5,358.75L1462.5,269.167L1468.75,269.167C1485.84,269.167 1501.67,304.167 1510.84,320.833C1527.92,351.25 1544.59,363.75 1579.17,363.75C1594.59,363.75 1610.42,358.75 1618.34,352.5L1618.75,351.667L1562.09,260.417C1561.25,260 1560.84,259.167 1560.42,258.75M1502.09,218.333L1462.5,218.333L1462.5,166.25L1502.09,166.25C1516.25,165.417 1527.92,176.25 1528.75,190.417L1528.75,192.917C1528.75,209.583 1516.25,217.917 1502.09,218.333" style="fill:white;fill-rule:nonzero;"/>
                <path d="M641.667,449.583C641.667,460 637.5,470.417 630,477.5C622.083,485 611.667,489.167 600.833,489.167C578.333,489.167 560,470.833 560,448.333C560,425.833 578.333,407.5 600.833,407.5C613.333,407.5 625.417,412.917 633.333,422.5L633.333,423.75L621.667,433.333L620,433.333C615.417,427.5 608.333,424.167 600.833,424.167C588.333,424.167 577.917,434.583 578.333,447.083L578.333,447.917C577.917,460.833 588.333,471.25 601.25,471.25C606.667,471.25 612.083,469.583 616.667,465.833C619.583,462.917 621.667,459.583 622.5,455.417L601.667,455.417L601.667,441.667L640,441.667L641.667,442.917L641.667,449.583" style="fill:white;fill-rule:nonzero;"/>
                <path d="M654.167,448.75C654.167,425.417 672.917,407.917 697.083,407.917C721.25,407.917 740,425.417 740,448.75C740,472.083 721.25,489.583 697.083,489.583C672.917,489.583 654.167,472.083 654.167,448.75M720.833,448.75C720.833,435.417 710.417,425 697.083,425C683.75,425 673.333,435.417 673.333,448.75C673.333,462.083 683.75,472.5 697.083,472.5C710,472.917 720.417,462.917 720.833,450L720.833,448.75" style="fill:white;fill-rule:nonzero;"/>
                <path d="M828.333,410.833L792.917,487.917L782.083,487.917L746.667,410.833L747.5,409.583L766.667,409.583L787.5,459.583L809.167,409.583L827.5,409.583L828.333,410.833Z" style="fill:white;fill-rule:nonzero;"/>
                <path d="M861.667,425L861.667,441.25L891.25,441.25L891.25,455.833L861.667,455.833L861.667,472.5L900,472.5L900,487.917L842.5,487.917L842.5,409.583L900,409.583L900,425L861.667,425Z" style="fill:white;fill-rule:nonzero;"/>
                <path d="M984.167,486.25L983.333,487.5L964.583,487.5L948.75,457.917L937.917,457.917L937.917,487.5L919.167,487.5L919.167,409.583L952.917,409.583C972.917,409.583 983.333,419.167 983.333,434.583C983.333,444.583 977.083,453.333 967.917,456.25L984.167,486.25ZM937.917,445.417L953.333,445.417C958.75,445.833 963.75,442.083 964.167,436.667L964.167,435.417C964.167,429.583 960,425 954.167,425L937.917,425L937.917,445.417Z" style="fill:white;fill-rule:nonzero;"/>
                <path d="M1072.5,409.583L1072.5,488.333L1060.83,488.333L1020.83,441.25L1020.83,487.917L1002.08,487.917L1002.08,409.583L1013.75,409.583L1053.33,456.25L1053.33,409.583L1072.5,409.583Z" style="fill:white;fill-rule:nonzero;"/>
                <path d="M1090.42,448.75C1090.42,425.417 1109.17,407.917 1133.34,407.917C1157.5,407.917 1176.25,425.417 1176.25,448.75C1176.25,472.083 1157.5,489.583 1133.34,489.583C1109.17,489.583 1090.42,471.667 1090.42,448.75M1157.09,448.75C1157.09,435.833 1146.67,425 1133.34,425C1120.42,425 1109.59,435.417 1109.59,448.75C1109.59,462.083 1120,472.5 1133.34,472.5C1146.25,472.917 1156.67,462.917 1157.09,450L1157.09,448.75" style="fill:white;fill-rule:nonzero;"/>
                <path d="M1300.83,448.333C1300.83,472.083 1285,487.5 1259.58,487.5L1225.41,487.5L1225.41,409.583L1259.58,409.583C1285,409.583 1300.83,425 1300.83,448.333M1281.66,448.333C1281.66,433.333 1272.5,424.583 1258.75,424.583L1243.75,424.583L1243.75,472.083L1258.75,472.083C1272.5,472.083 1281.66,463.333 1281.66,448.333" style="fill:white;fill-rule:nonzero;"/>
                <path d="M1314.17,448.75C1314.17,425.417 1332.92,407.917 1357.09,407.917C1381.25,407.917 1400,425.417 1400,448.75C1400,472.083 1381.25,489.583 1357.09,489.583C1332.92,489.583 1314.17,472.083 1314.17,448.75M1380.84,448.75C1380.84,435.833 1370.42,425 1357.5,425C1344.59,425 1333.75,435.417 1333.75,448.333C1333.75,461.25 1344.17,472.083 1357.09,472.083L1357.5,472.083C1370.42,472.5 1380.84,462.5 1381.25,449.583C1380.84,449.167 1380.84,448.75 1380.84,448.75" style="fill:white;fill-rule:nonzero;"/>
                <path d="M1467.92,425L1467.92,441.25L1497.5,441.25L1497.5,455.833L1467.92,455.833L1467.92,472.5L1506.67,472.5L1506.67,487.917L1449.17,487.917L1449.17,409.583L1506.25,409.583L1506.25,425L1467.92,425Z" style="fill:white;fill-rule:nonzero;"/>
                <path d="M1519.58,475L1519.58,473.75L1528.75,462.917L1530,462.917C1535.41,469.167 1543.33,472.917 1551.66,473.333C1559.58,473.333 1564.16,470 1564.16,465.417C1564.16,458.75 1556.66,457.917 1547.08,455C1536.25,451.667 1523.33,445.417 1523.33,430.833C1523.33,417.083 1535.41,407.5 1552.91,407.5C1563.75,407.083 1574.58,411.25 1582.5,419.167L1582.5,420.417L1573.33,430.833L1572.08,430.833C1567.08,425.833 1560.41,422.5 1553.33,422.083C1547.08,422.083 1542.91,424.583 1542.91,429.167C1542.91,434.167 1548.75,436.25 1555.41,438.75C1568.75,442.917 1584.16,447.083 1584.16,464.583C1584.16,480 1570.41,488.333 1553.33,488.333C1540.41,489.583 1528.33,484.583 1519.58,475" style="fill:white;fill-rule:nonzero;"/>
                <path d="M1636.67,487.917L1617.92,487.917L1617.92,425L1593.34,425L1593.34,409.583L1661.67,409.583L1661.67,425L1636.67,425L1636.67,487.917Z" style="fill:white;fill-rule:nonzero;"/>
                <path d="M1742.5,486.25L1741.67,487.917L1722.5,487.917L1716.67,474.167L1683.33,474.167L1677.5,487.917L1659.17,487.917L1658.33,486.25L1694.58,409.167L1706.25,409.167L1742.5,486.25ZM1711.67,460.833L1700.83,434.167L1689.58,460.833L1711.67,460.833Z" style="fill:white;fill-rule:nonzero;"/>
                <path d="M1832.08,448.333C1832.08,472.083 1816.25,487.5 1790.83,487.5L1756.66,487.5L1756.66,409.583L1790.83,409.583C1816.25,409.583 1832.08,425 1832.08,448.333M1812.91,448.333C1812.91,433.333 1803.75,424.583 1790.41,424.583L1775.41,424.583L1775.41,472.083L1790.41,472.083C1804.16,472.083 1813.33,463.333 1812.91,448.333" style="fill:white;fill-rule:nonzero;"/>
                <path d="M1845.83,448.75C1845.83,425.417 1864.58,407.917 1888.75,407.917C1912.91,407.917 1931.66,425.417 1931.66,448.75C1931.66,472.083 1912.91,489.583 1888.75,489.583C1864.58,489.583 1845.83,472.083 1845.83,448.75M1912.5,448.75C1912.5,435.417 1902.08,425 1888.75,425C1875.41,425 1865,435.417 1865,448.75C1865,462.083 1875.41,472.5 1888.75,472.5C1901.66,472.917 1912.08,462.917 1912.5,450L1912.5,448.75" style="fill:white;fill-rule:nonzero;"/>
                <path d="M1753.33,87.917L1854.16,50L1854.16,44.583L1827.5,0.833L1822.08,0.833L1732.91,55.417L1732.91,60.833L1747.91,87.917L1753.33,87.917Z" style="fill:white;fill-rule:nonzero;"/>
                <path d="M414.167,252.917C417.083,228.75 434.167,212.083 454.167,199.167L457.917,197.083L390.833,112.5L389.583,112.083C381.667,110.417 373.75,109.167 365.833,107.917C341.667,104.583 324.167,102.5 309.167,100.833L296.667,100L296.25,100L292.5,99.583L290.833,99.583C281.667,99.167 272.5,98.75 263.333,98.333L257.5,98.333C223.75,97.5 194.167,98.75 172.917,100C165.417,100.417 118.333,105 109.167,106.25L107.917,106.25C97.083,107.917 75,111.25 67.083,112.5L0,197.083L3.75,199.167C23.75,211.667 40.833,228.75 43.75,252.917C46.667,277.083 33.333,304.583 24.167,326.25C12.083,355.417 0.833,384.167 0.833,416.25C0.833,422.917 2.083,430 3.75,436.667C10.417,457.917 26.667,475 44.167,488.75C65,504.167 87.083,517.917 110.417,529.583C134.167,542.083 158.333,554.167 181.25,567.917C196.667,577.083 216.667,590.833 225,607.083L228.333,613.75L231.667,607.083C240,590.833 260.417,577.5 275.417,567.917C298.333,554.167 322.5,542.083 346.25,529.583C369.583,517.917 391.667,504.167 412.5,488.75C430,475 446.25,457.917 452.917,436.667C455,430 455.833,423.333 455.833,416.25C455.833,384.167 444.583,355.417 432.5,326.25C424.167,304.583 411.25,277.083 414.167,252.917" style="fill:white;fill-rule:nonzero;"/>
                <path d="M310,16.25L323.75,18.333L323.75,10L310,16.25Z" style="fill:rgb(234,215,177);"/>
                <path d="M190,5.417L190,13.333L197.917,12.5L190,5.417Z" style="fill:rgb(234,215,177);"/>
                <path d="M259.583,12.5L267.083,12.917L267.083,5L259.583,12.5Z" style="fill:rgb(234,215,177);"/>
                <g>
                    <g>
                        <clipPath id="_clip2">
                            <path d="M213.75,1.25C212.917,1.25 212.083,2.083 212.083,2.917L212.083,13.75C203.75,13.75 195.417,14.167 187.083,14.583L187.083,3.75C187.083,3.333 187.083,2.917 186.667,2.5C186.25,2.083 185.833,2.083 185.417,2.083C176.25,2.5 166.667,3.333 157.083,4.167C156.25,4.167 155.833,5 155.833,5.833L155.833,16.667C147.5,17.5 140,18.333 131.667,19.583L131.667,9.167C131.667,8.75 131.667,8.333 131.25,7.917C130.833,7.5 130.417,7.5 130,7.5C123.75,8.333 117.5,10 111.25,11.25C107.5,12.083 104.167,12.917 100.417,13.333C99.583,13.333 99.167,14.167 99.167,15L99.167,27.083L103.75,35.833C104.167,36.25 104.583,36.667 105,36.667L105.833,36.667C145,30.417 184.583,27.083 224.167,26.667C264.167,26.667 303.333,31.25 350,38.75L350.417,38.75C350.833,38.75 351.25,38.75 351.25,38.333C351.667,37.917 351.667,37.5 351.667,37.083L351.667,35.833L355.417,28.75L356.25,27.083L356.25,15C356.25,14.167 355.833,13.75 355,13.333L350.833,12.5C342.917,10.833 334.583,9.167 326.667,7.917C326.25,7.917 325.833,7.917 325.417,8.333C325,8.333 325,8.75 324.583,9.167L324.583,19.167C317.917,18.333 311.667,17.5 305.417,17.083L300.417,16.667L300.417,6.25C300.417,5.417 300,5 299.167,4.583C290,3.75 280.417,2.917 270.833,2.5C270.417,2.5 270,2.5 269.583,2.917C269.167,3.333 269.167,3.75 269.167,4.167L269.167,14.583C260.833,14.167 252.5,14.167 244.167,13.75L244.167,2.917C244.167,2.083 243.333,1.25 242.5,1.25L213.75,1.25"/>
                        </clipPath>
                        <g clip-path="url(#_clip2)">
                            <rect x="99.167" y="1.25" width="257.917" height="37.5" style="fill:url(#_Linear3);"/>
                        </g>
                    </g>
                </g>
                <g>
                    <g>
                        <clipPath id="_clip4">
                            <path d="M104.167,38.333L115.417,49.167C152.5,43.333 189.583,40 227.083,39.583C265.417,40.417 304.167,43.333 342.083,49.167L349.583,42.083L351.667,38.333C312.5,30.833 272.5,27.5 232.5,27.5C189.167,27.917 146.667,31.667 104.167,38.333"/>
                        </clipPath>
                        <g clip-path="url(#_clip4)">
                            <rect x="104.167" y="27.917" width="247.5" height="21.667" style="fill:url(#_Linear5);"/>
                        </g>
                    </g>
                </g>
                <g>
                    <g>
                        <clipPath id="_clip6">
                            <path d="M124.583,48.75L98.75,110C98.75,110 162.917,102.5 232.083,100.833C275,100 317.083,103.333 359.167,110.417C358.75,110 332.083,48.333 332.083,48.333C332.083,48.333 286.25,42.5 231.667,41.25L220,41.25C188.333,41.667 156.667,44.167 124.583,48.75"/>
                        </clipPath>
                        <g clip-path="url(#_clip6)">
                            <rect x="99.167" y="41.25" width="260" height="69.583" style="fill:url(#_Linear7);"/>
                        </g>
                    </g>
                </g>
                <path d="M246.25,100L207.5,100.417C207.917,92.917 208.333,85.833 210,78.75C211.667,73.333 215,68.333 219.583,65C223.75,62.083 228.75,61.667 233.75,62.917C238.333,64.583 242.5,67.917 244.583,72.083C247.5,77.083 249.167,82.5 249.583,87.917C250,92.083 250,96.25 249.583,100.417L246.25,100Z" style="fill:rgb(234,215,177);"/>
                <path d="M286.25,52.083C280,52.5 274.583,56.25 275,61.25C275.417,66.25 278.333,89.583 278.333,89.583L303.333,91.25L298.75,59.167C298.75,59.167 292.5,51.667 286.25,52.083" style="fill:rgb(234,215,177);"/>
                <g>
                    <g>
                        <clipPath id="_clip8">
                            <path d="M77.917,132.5L30.417,191.667C48.333,206.667 61.667,225.417 64.583,250C67.917,279.167 55,308.333 44.167,334.583C33.333,360.833 22.083,387.917 22.083,416.667C22.083,421.25 22.917,425.833 24.167,430.417C35,465.417 89.583,494.167 120,510.417C144.167,523.333 169.167,535.417 192.5,549.583C205.417,556.667 217.5,565.417 228.333,575C238.75,565.417 250.417,556.667 262.917,549.583C286.25,535.417 311.25,523.333 335.417,510.417C367.917,493.333 433.75,459.583 433.75,416.667C433.75,387.917 422.917,361.25 412.083,335C401.25,308.75 388.333,279.167 391.25,250C394.167,225.417 407.5,207.5 425.417,192.5L377.917,132.5C330,124.167 281.667,120 232.917,120C181.25,120 129.167,124.167 77.917,132.5"/>
                        </clipPath>
                        <g clip-path="url(#_clip8)">
                            <rect x="22.083" y="119.583" width="411.25" height="455.417" style="fill:url(#_Radial9);"/>
                        </g>
                    </g>
                </g>
                <path d="M86.667,212.083L82.5,224.583L70,224.583L80.417,232.5L76.25,245L86.667,237.083L96.667,245L92.917,232.5L103.333,224.583L90.417,224.583L86.667,212.083Z" style="fill:white;"/>
                <path d="M86.667,212.083L82.5,224.583L70,224.583L80.417,232.5L76.25,245L86.667,237.083L96.667,245L92.917,232.5L103.333,224.583L90.417,224.583L86.667,212.083Z" style="fill:none;fill-rule:nonzero;"/>
                <path d="M75.833,297.083L72.083,309.583L59.167,309.583L69.583,317.5L65.833,330L75.833,322.083L86.25,330L82.083,317.5L92.5,309.583L79.583,309.583L75.833,297.083Z" style="fill:white;"/>
                <path d="M75.833,297.083L72.083,309.583L59.167,309.583L69.583,317.5L65.833,330L75.833,322.083L86.25,330L82.083,317.5L92.5,309.583L79.583,309.583L75.833,297.083Z" style="fill:none;fill-rule:nonzero;"/>
                <path d="M62.083,373.333L58.333,385.833L45.417,385.833L55.833,393.75L51.667,406.25L62.083,398.333L72.5,406.25L68.333,393.75L78.75,385.833L65.833,385.833L62.083,373.333Z" style="fill:white;"/>
                <path d="M62.083,373.333L58.333,385.833L45.417,385.833L55.833,393.75L51.667,406.25L62.083,398.333L72.5,406.25L68.333,393.75L78.75,385.833L65.833,385.833L62.083,373.333Z" style="fill:none;fill-rule:nonzero;"/>
                <path d="M227.083,506.25L223.333,518.75L210.417,518.333L220.833,526.25L217.083,538.75L227.083,530.833L237.5,538.75L233.333,526.25L243.75,518.333L231.25,518.75L227.083,506.25Z" style="fill:white;"/>
                <path d="M227.083,506.25L223.333,518.75L210.417,518.333L220.833,526.25L217.083,538.75L227.083,530.833L237.5,538.75L233.333,526.25L243.75,518.333L231.25,518.75L227.083,506.25Z" style="fill:none;fill-rule:nonzero;"/>
                <path d="M303.75,475L299.583,487.5L287.083,487.5L297.5,495.417L293.333,507.917L303.75,500L313.75,507.917L310,495.417L320,487.5L307.5,487.5L303.75,475Z" style="fill:white;"/>
                <path d="M303.75,475L299.583,487.5L287.083,487.5L297.5,495.417L293.333,507.917L303.75,500L313.75,507.917L310,495.417L320,487.5L307.5,487.5L303.75,475Z" style="fill:none;fill-rule:nonzero;"/>
                <path d="M150,475L153.75,487.5L166.667,487.5L156.25,495.417L160.417,507.917L150,500L139.583,507.917L143.75,495.417L133.333,487.5L145.833,487.5L150,475Z" style="fill:white;"/>
                <path d="M150,475L153.75,487.5L166.667,487.5L156.25,495.417L160.417,507.917L150,500L139.583,507.917L143.75,495.417L133.333,487.5L145.833,487.5L150,475Z" style="fill:none;fill-rule:nonzero;"/>
                <path d="M89.167,434.583L92.917,447.083L105.833,447.083L95.417,454.583L99.583,467.083L89.167,459.583L78.75,467.083L82.917,454.583L72.5,447.083L85.417,447.083L89.167,434.583Z" style="fill:white;"/>
                <path d="M89.167,434.583L92.917,447.083L105.833,447.083L95.417,454.583L99.583,467.083L89.167,459.583L78.75,467.083L82.917,454.583L72.5,447.083L85.417,447.083L89.167,434.583Z" style="fill:none;fill-rule:nonzero;"/>
                <g>
                    <g>
                        <clipPath id="_clip10">
                            <path d="M103.75,327.917L352.5,327.917C354.167,248.75 312.5,167.083 227.917,167.083C143.333,167.083 101.667,248.75 103.75,327.917"/>
                        </clipPath>
                        <g clip-path="url(#_clip10)">
                            <rect x="101.667" y="167.083" width="252.5" height="160.833" style="fill:url(#_Radial11);"/>
                        </g>
                    </g>
                </g>
                <path d="M103.75,320L173.75,320L173.75,322.917L103.333,322.917L103.333,322.5L103.75,320" style="fill:rgb(202,165,46);"/>
                <path d="M103.75,320L173.75,320L173.75,322.917L103.333,322.917L103.333,322.5L103.75,320Z" style="fill:none;fill-rule:nonzero;"/>
                <path d="M104.167,306.25L173.75,320L172.917,322.917L104.167,309.167L104.167,306.25" style="fill:rgb(202,165,46);"/>
                <path d="M104.167,306.25L173.75,320L172.917,322.917L104.167,309.167L104.167,306.25Z" style="fill:none;fill-rule:nonzero;"/>
                <path d="M105.833,292.083L174.167,320L172.917,322.917L105.417,295.417C105.417,294.167 105.417,292.917 105.833,292.083" style="fill:rgb(202,165,46);"/>
                <path d="M105.833,292.083L174.167,320L172.917,322.917L105.417,295.417C105.417,294.167 105.417,292.917 105.833,292.083Z" style="fill:none;fill-rule:nonzero;"/>
                <path d="M108.333,276.667L174.167,320L172.5,322.5L107.917,280C107.917,278.75 108.333,277.917 108.333,276.667" style="fill:rgb(202,165,46);"/>
                <path d="M108.333,276.667L174.167,320L172.5,322.5L107.917,280C107.917,278.75 108.333,277.917 108.333,276.667Z" style="fill:none;fill-rule:nonzero;"/>
                <path d="M112.917,260L174.583,320.417L172.5,322.5L112.083,263.333L112.917,260" style="fill:rgb(202,165,46);"/>
                <path d="M112.917,260L174.583,320.417L172.5,322.5L112.083,263.333L112.917,260Z" style="fill:none;fill-rule:nonzero;"/>
                <path d="M120.417,240.833L175,320.833L172.5,322.5L118.75,244.167L120.417,240.833" style="fill:rgb(202,165,46);"/>
                <path d="M120.417,240.833L175,320.833L172.5,322.5L118.75,244.167L120.417,240.833Z" style="fill:none;fill-rule:nonzero;"/>
                <path d="M132.083,219.583L175,320.833L172.083,322.083L130,222.5C130.833,221.667 131.25,220.833 132.083,219.583" style="fill:rgb(202,165,46);"/>
                <path d="M132.083,219.583L175,320.833L172.083,322.083L130,222.5C130.833,221.667 131.25,220.417 132.083,219.583Z" style="fill:none;fill-rule:nonzero;"/>
                <path d="M149.583,198.333L175,321.25L172.083,321.667L147.083,200.417C147.917,200 148.75,199.167 149.583,198.333" style="fill:rgb(202,165,46);"/>
                <path d="M149.583,198.333L175,321.25L172.083,321.667L147.083,200.417C147.917,200 148.75,199.167 149.583,198.333Z" style="fill:none;fill-rule:nonzero;"/>
                <path d="M174.583,180L175,321.667L172.083,321.667L171.667,181.667L174.583,180" style="fill:rgb(202,165,46);"/>
                <path d="M174.583,180L175,321.667L172.083,321.667L171.667,181.667L174.583,180Z" style="fill:none;fill-rule:nonzero;"/>
                <path d="M205,169.167L175,322.083L172.083,321.667L202.083,170L205,169.167" style="fill:rgb(202,165,46);"/>
                <path d="M205,169.167L175,322.083L172.083,321.667L202.083,170L205,169.167Z" style="fill:none;fill-rule:nonzero;"/>
                <path d="M238.75,167.5L175,322.5L172.083,321.25L235.833,167.5L238.75,167.5" style="fill:rgb(202,165,46);"/>
                <path d="M238.75,167.5L175,322.5L172.083,321.25L235.833,167.5L238.75,167.5Z" style="fill:none;fill-rule:nonzero;"/>
                <path d="M272.917,175.833L174.583,322.5L172.083,320.833L270,175L272.917,175.833" style="fill:rgb(202,165,46);"/>
                <path d="M272.917,175.833L174.583,322.5L172.083,320.833L270,175L272.917,175.833Z" style="fill:none;fill-rule:nonzero;"/>
                <path d="M302.5,195L174.167,322.917L172.083,320.833L300.417,192.917C301.25,193.75 301.667,194.167 302.5,195" style="fill:rgb(202,165,46);"/>
                <path d="M302.5,195L174.167,322.917L172.083,320.833L300.417,192.917C301.25,193.75 301.667,194.167 302.5,195Z" style="fill:none;fill-rule:nonzero;"/>
                <path d="M325.417,222.083L174.167,322.917L172.5,320.417L324.167,219.167C324.583,220.417 325,221.25 325.417,222.083" style="fill:rgb(202,165,46);"/>
                <path d="M325.417,222.083L174.167,322.917L172.5,320.417L324.167,219.167C324.167,220.417 324.583,221.25 325.417,222.083Z" style="fill:none;fill-rule:nonzero;"/>
                <path d="M340.417,253.75L173.75,323.333L172.5,320.417L339.583,250.833C340,251.667 340.417,252.917 340.417,253.75" style="fill:rgb(202,165,46);"/>
                <path d="M340.417,253.75L173.75,323.333L172.5,320.417L339.583,250.833C340,251.667 340.417,252.917 340.417,253.75Z" style="fill:none;fill-rule:nonzero;"/>
                <path d="M349.583,287.5L173.75,323.333L172.917,320.417L349.167,284.583L349.583,287.5" style="fill:rgb(202,165,46);"/>
                <path d="M349.583,287.5L173.75,323.333L172.917,320.417L349.167,284.583L349.583,287.5Z" style="fill:none;fill-rule:nonzero;"/>
                <path d="M352.083,321.667L172.917,322.917L172.917,320L352.083,318.75L352.083,321.667" style="fill:rgb(202,165,46);"/>
                <path d="M352.083,321.667L172.917,322.917L172.917,320L352.083,318.75L352.083,321.667Z" style="fill:none;fill-rule:nonzero;"/>
                <path d="M173.333,276.667C198.333,276.667 219.167,296.667 219.167,321.667L127.5,321.667C127.917,296.667 148.333,276.667 173.333,276.667" style="fill:rgb(202,165,46);"/>
                <path d="M173.333,280.417C196.25,280 215,297.917 215.417,320.833L131.25,320.833C132.083,297.917 150.833,280 173.333,280.417" style="fill:rgb(250,203,19);"/>
                <g>
                    <g>
                        <clipPath id="_clip12">
                            <path d="M103.333,322.917C103.333,328.75 103.75,334.583 104.167,340.417C132.917,341.25 170,339.583 170.833,345C170.833,345.833 172.5,345.417 173.75,345C175,344.583 176.25,344.167 175.417,345C162.083,359.583 178.75,385 195,397.917C246.667,437.917 227.917,460.833 185.833,469.583C199.167,474.583 213.333,477.083 227.5,476.667C275.417,476.667 309.167,450.833 329.583,414.583C298.75,402.083 246.25,395.833 233.75,368.333C229.583,359.167 254.583,342.083 258.333,334.583C265.833,320.417 217.083,323.333 218.75,322.5L104.167,322.083C105,322.083 104.583,322.5 103.333,322.917"/>
                        </clipPath>
                        <g clip-path="url(#_clip12)">
                            <rect x="103.75" y="320.417" width="226.25" height="156.25" style="fill:url(#_Linear13);"/>
                        </g>
                    </g>
                </g>
                <g>
                    <g>
                        <clipPath id="_clip14">
                            <path d="M103.333,322.083L103.333,321.25C97.083,355.417 111.667,408.333 142.5,441.25C167.917,468.333 203.75,480 218.333,477.917L221.25,477.917C222.917,477.917 224.167,478.333 224.583,477.083C256.667,417.083 140.417,349.583 222.917,322.917C228.75,321.25 218.333,320.417 201.25,320.417C172.917,320.417 125.833,322.083 103.333,322.083"/>
                        </clipPath>
                        <g clip-path="url(#_clip14)">
                            <rect x="97.083" y="320.417" width="160" height="159.583" style="fill:url(#_Linear15);"/>
                        </g>
                    </g>
                </g>
                <g>
                    <g>
                        <clipPath id="_clip16">
                            <path d="M337.083,250.417C307.917,250.833 310.417,285 290,287.083C285,287.5 273.333,283.75 265,282.083C253.75,280.417 231.667,307.083 226.667,321.25L352.083,321.25C352.083,297.083 347.917,272.917 339.167,250C338.75,250.417 337.917,250.417 337.083,250.417Z"/>
                        </clipPath>
                        <g clip-path="url(#_clip16)">
                            <rect x="226.667" y="250.417" width="125.417" height="71.25" style="fill:url(#_Linear17);"/>
                        </g>
                    </g>
                </g>
                <path d="M155,410.833C138.333,377.083 147.083,356.667 170,343.75C159.583,362.083 175,377.917 196.667,395C182.083,397.5 167.917,402.5 155.417,410.417L155,410.833Z" style="fill:white;"/>
                <g>
                    <g>
                        <clipPath id="_clip18">
                            <path d="M235.417,391.25C255.833,412.5 293.333,415.417 320.833,429.583C341.667,401.25 352.083,362.917 352.5,325L352.5,323.75L227.5,322.5C215.833,340 209.583,364.167 235.417,391.25"/>
                        </clipPath>
                        <g clip-path="url(#_clip18)">
                            <rect x="209.583" y="322.083" width="142.5" height="107.5" style="fill:url(#_Linear19);"/>
                        </g>
                    </g>
                </g>
                <g>
                    <g>
                        <clipPath id="_clip20">
                            <path d="M324.583,288.333C314.167,289.583 306.667,306.667 286.25,319.583L352.5,319.583C352.5,310.417 351.667,301.25 350.417,292.5C344.167,291.667 334.167,289.167 327.083,288.333L324.583,288.333Z"/>
                        </clipPath>
                        <g clip-path="url(#_clip20)">
                            <rect x="286.25" y="288.333" width="66.25" height="31.25" style="fill:url(#_Linear21);"/>
                        </g>
                    </g>
                </g>
                <rect x="164.583" y="238.333" width="16.667" height="8.75" style="fill:rgb(250,203,19);"/>
                <rect x="164.583" y="238.333" width="16.667" height="8.75" style="fill:none;"/>
                <path d="M233.333,219.583C244.167,218.75 255,220 265,223.333C272.917,226.25 275.833,226.25 283.333,232.917L272.5,240C261.25,227.5 247.5,225.417 233.333,221.25C227.083,219.167 227.083,219.583 233.333,219.583" style="fill:white;"/>
                <path d="M278.333,232.5C287.083,233.333 297.5,226.25 301.667,225.417C303.333,225 305.833,227.917 304.583,228.75C302.5,230 300,231.25 297.5,232.083C300,230.833 302.5,229.583 305.417,228.75C307.5,229.167 308.75,232.5 307.917,233.333C307.917,233.333 300.833,235 298.75,236.25C301.667,235 304.583,234.167 307.917,233.333C309.167,233.333 310.417,237.083 308.75,237.917C303.75,241.25 297.5,241.25 292.5,243.333C294.583,250.833 299.583,260 299.167,267.917C298.75,280.417 292.083,292.083 290,303.75C289.167,308.333 289.583,309.583 288.75,304.167C286.25,289.167 285,262.083 277.917,252.083C275.417,250 272.5,248.75 269.167,247.5C266.25,246.667 263.75,246.25 260.833,246.25C258.75,246.667 254.167,247.917 252.083,248.333C252.917,244.583 255.417,234.583 262.5,235.417L278.333,232.5Z" style="fill:white;"/>
                <path d="M281.667,365L281.25,369.167L286.667,372.917L286.667,368.333L281.667,365ZM279.583,435.833L279.583,440L280,440.417L285.417,440.417L279.583,435.833ZM279.583,427.917L279.583,432.083L288.75,439.167L288.75,435L279.583,427.917ZM280,420L280,424.167L289.167,430.833L289.167,426.667L280,420ZM280,412.083L279.583,416.25L287.917,422.5L287.917,417.917L280,412.083ZM280.417,404.167L280.417,408.333L288.333,414.167L288.333,410L280.417,404.167ZM280.833,396.25L280.833,400.417L288.333,405.833L288.333,401.25L280.833,396.25ZM280.833,388.333L280.833,392.5L287.5,397.5L287.5,392.917L280.833,388.333ZM281.25,380.417L280.833,384.583L287.083,389.167L287.083,384.583L281.25,380.417ZM281.667,372.5L281.25,376.667L287.083,380.833L286.667,376.25L281.667,372.5Z" style="fill:rgb(171,146,118);"/>
                <path d="M278.75,436.667L278.75,440.833L279.167,441.25L284.583,441.25L278.75,436.667ZM279.167,428.75L279.167,432.5L288.333,439.583L288.333,435.417L279.167,428.75ZM279.583,420.833L279.583,425L288.333,431.667L288.333,427.5L279.583,420.833Z" style="fill:none;fill-rule:nonzero;"/>
                <g>
                    <g>
                        <clipPath id="_clip22">
                            <path d="M155,264.583L155,320L192.083,320L191.667,264.583L155,264.583Z"/>
                        </clipPath>
                        <g clip-path="url(#_clip22)">
                            <rect x="155" y="264.583" width="36.667" height="55.417" style="fill:url(#_Linear23);"/>
                        </g>
                    </g>
                </g>
                <g>
                    <g>
                        <clipPath id="_clip24">
                            <path d="M173.333,223.333C171.25,223.333 170,226.25 168.333,228.333C167.083,229.583 166.25,230.833 165,232.083L165,254.583L165.833,255.833L165.417,263.75L181.25,263.75L180.833,255.417L184.167,254.583L183.75,246.667L183.333,233.75C181.25,231.667 179.583,229.583 177.917,227.5C175.833,225.417 176.667,222.917 173.333,223.333Z"/>
                        </clipPath>
                        <g clip-path="url(#_clip24)">
                            <rect x="164.583" y="222.917" width="18.75" height="40.417" style="fill:url(#_Linear25);"/>
                        </g>
                    </g>
                </g>
                <rect x="165.417" y="238.75" width="15" height="7.083" style="fill:rgb(250,203,19);"/>
                <path d="M168.75,51.667C175,52.083 180.417,55.833 180,60.833C179.583,65.833 176.667,89.167 176.667,89.167L151.667,90.833L156.25,58.75C156.25,59.167 162.5,51.667 168.75,51.667" style="fill:rgb(234,215,177);"/>
                <path d="M162.5,62.083C161.667,70.833 160.417,76.25 160,85C164.167,84.583 167.5,84.583 170.833,84.167C171.667,75.833 172.917,69.583 173.75,61.25C171.667,56.667 165.833,57.083 162.5,62.083" style="fill:rgb(110,78,50);fill-rule:nonzero;"/>
                <path d="M295.417,85C294.583,76.667 293.75,70.417 292.917,62.083C289.583,57.083 283.75,56.25 281.667,61.25C282.5,69.583 283.333,75.833 284.583,84.167C287.917,84.583 290.833,85 295.417,85" style="fill:rgb(110,78,50);fill-rule:nonzero;"/>
                <path d="M244.167,99.167L244.167,95.833C243.333,85 242.5,67.5 228.75,67.5C215,67.5 214.583,85.417 213.75,96.25L213.75,98.75L244.167,99.167Z" style="fill:rgb(110,78,50);fill-rule:nonzero;"/>
                <path d="M228.75,63.333C246.667,63.333 247.083,84.583 248.333,97.917L248.333,99.167L251.667,99.167L251.667,98.333C251.25,94.583 250.833,90.833 250.417,87.083L258.75,87.083L260,98.333L260.417,99.167L263.75,99.167L263.75,98.333L262.5,87.083L277.083,87.5L277.5,92.083L284.167,92.5C287.917,92.917 291.667,92.917 295,93.333L305,94.167L304.583,89.167C310.833,89.583 317.083,90 323.333,90.833L326.25,102.917L326.667,105L330,105L329.583,102.083L327.083,91.667L350,94.583L355,105.833L355.417,107.083L355.833,107.917L360,108.333L360,107.5L335,50.417L343.75,51.667L352.917,43.75L359.583,29.167C360.417,23.75 360.417,17.917 360,12.5C355,11.667 326.25,5.833 323.75,5.833L302.5,15.417L302.5,3.333L266.667,0.417L254.167,12.083L246.25,12.083L246.25,0L210.417,0L210.417,12.083L202.917,12.5L190.417,0.833L154.167,3.75L154.167,15.417L133.75,6.25C131.25,5.833 102.917,11.667 97.917,12.5C97.917,15.833 97.083,26.667 98.333,29.167C106.667,46.25 100.417,40 115.417,50.833L122.5,50L97.917,107.5L97.917,108.75L101.667,108.333L102.083,107.5L107.917,94.167L130.833,91.25L127.5,103.75L127.5,106.667L130.417,106.667L131.667,100.833L134.167,91.25C140,90.833 145.417,90 151.25,89.583L150.833,94.167L160.417,93.333C164.167,92.917 167.917,92.917 171.25,92.5L177.5,91.667L177.917,87.5C183.333,87.083 189.167,87.083 194.583,86.667L193.75,95.833L193.333,100L196.667,100L196.667,98.333L197.917,86.667L206.25,86.25L206.667,82.917L179.167,84.583L180.833,72.917L211.25,71.667C208.333,79.583 206.667,87.917 206.25,96.667L205.417,100L208.75,100L208.75,98.333C210.417,85 211.25,63.333 228.75,63.333M276.25,54.583C260.833,53.75 245.833,53.333 230.417,53.333L230.417,41.667C247.917,41.667 265.417,42.5 282.917,43.75L283.75,50L282.5,50.417C280.417,50.833 277.917,52.5 276.25,54.583M273.333,62.5C273.75,65 273.75,67.083 274.167,69.167L260,68.75L259.167,56.667C264.167,56.667 269.167,57.083 274.167,57.5L273.75,58.333L272.917,60.417L273.333,62.5ZM295,89.167C291.25,88.75 287.5,88.75 284.167,88.333L280.833,87.917L280.417,84.583C279.583,77.083 278.333,69.167 277.5,61.667L277.5,60.417L277.917,59.583C279.167,57.083 281.25,55 284.167,54.167C289.167,53.333 294.167,55.417 296.25,60L296.667,60.833L296.667,61.667C297.5,69.167 298.75,77.083 299.167,84.583L299.583,89.583L295,89.167ZM300.833,61.667L300.417,60C305.417,60.417 310.417,60.833 315,61.667L317.917,73.333C312.5,72.917 307.083,72.5 301.667,71.667C301.667,67.917 301.25,65 300.833,61.667M348.333,90.417L347.917,90.417C333.333,88.333 318.75,87.083 304.167,85.833L304.167,84.583C303.75,81.25 303.333,77.917 302.917,74.583C316.25,75.833 330,77.083 343.333,79.167L348.333,90.417ZM341.667,75.833L341.25,75.833L322.083,73.333L319.167,61.667L336.667,63.75L341.667,75.833ZM335,60.417L334.583,60.417L298.75,56.667C295.833,53.333 292.083,50.833 287.5,50.417L286.25,44.167C300.833,45.417 315.417,47.083 329.583,49.167L335,60.417ZM323.333,10.417L323.333,17.917C319.167,17.5 314.583,16.667 310.417,15.833L323.333,10.417ZM267.083,5.417L267.083,12.5L259.583,12.5L267.083,5.417ZM190.417,5.417L197.917,12.5L190.417,12.917L190.417,5.417ZM133.75,10.833L147.083,16.667L133.75,18.333L133.75,10.833ZM106.25,36.25C100.417,25 101.667,29.167 101.667,15.833C111.25,14.167 120.417,12.5 130,10.833L130,22.5C139.583,21.25 148.75,20 158.333,19.167L158.333,7.083C167.917,6.25 177.083,5.417 186.667,5L186.667,17.083C195.833,16.667 205,16.25 214.583,15.833L214.583,3.75L242.917,3.75L242.917,15.833C252.5,15.833 261.667,16.25 271.25,16.667L271.25,4.583C280.833,5 290,5.833 299.583,6.667L299.583,18.75C308.75,19.583 318.333,20.833 327.917,22.083L327.917,10.833C337.083,12.5 346.667,14.167 356.25,15.833C356.25,29.583 357.5,24.583 351.25,36.667C309.167,29.583 267.083,26.25 225,26.25C185.417,26.667 145.833,30 106.25,36.25ZM116.667,46.667C112.917,44.167 110.833,42.5 107.5,39.583C187.5,26.667 269.583,26.667 350,40.417L342.083,47.5L300.833,41.667C239.167,35.417 177.5,37.083 116.667,46.667M126.667,49.583C141.25,47.5 156.25,45.833 170.833,44.583L169.583,50C164.167,50 159.583,52.5 156.25,56.667L121.667,60.417L126.667,49.583ZM120.417,63.75L137.917,61.667L135,73.75L115,76.25L120.417,63.75ZM151.667,84.583L151.667,86.25C137.5,87.5 123.333,88.75 109.167,90.833L114.167,79.167C127.083,77.5 140,75.833 152.917,75C152.083,78.333 151.667,81.667 151.667,84.583M154.167,61.667C153.75,65 153.333,68.333 152.917,71.667L138.333,72.917L141.667,60.833C145.833,60.417 150,60 154.167,59.583L154.167,61.667ZM177.917,62.083C177.083,70 175.833,77.5 175,85L174.583,88.333L170.833,88.75C167.083,89.167 163.333,89.167 160,89.583L155,90L155.417,85C156.25,77.5 157.5,69.583 157.917,62.083L157.917,61.25L158.333,60.417C160.833,55.833 165.833,53.75 170.833,54.583C173.333,55.417 175.833,57.083 177.083,59.583L177.5,60.417L177.917,62.083ZM178.75,54.583C177.083,52.5 175,51.25 172.917,50.417L174.167,43.75C191.667,42.5 209.583,41.667 227.083,41.667L227.083,52.917C211.25,52.917 195,53.333 178.75,54.583M196.667,69.167C191.25,69.167 186.25,69.583 180.833,70C181.25,67.5 181.667,65 181.667,62.917L182.083,60.833L181.25,58.333L180.833,57.917C186.25,57.5 192.083,57.5 197.5,57.083L196.667,69.167ZM200,69.167L200.833,57.083C219.167,56.667 237.5,56.25 255.833,57.083L257.083,68.75L244.583,68.333C245.417,69.167 245.833,70.417 246.25,71.667L274.583,72.917L276.25,84.583L250,83.333L250,84.583C247.917,72.083 243.333,60 228.333,60C222.083,59.583 215.833,62.917 212.5,68.333L200,69.167Z" style="fill:rgb(110,78,50);fill-rule:nonzero;"/>
                <rect x="169.583" y="284.167" width="8.75" height="8.333" style="fill:rgb(64,89,101);"/>
                <path d="M190.417,415.417C191.667,414.583 192.083,412.917 191.25,411.667C191.25,411.25 190.833,411.25 190.417,410.833L183.333,410.833L183.333,406.667C183.333,405.833 182.5,405 181.667,405L177.917,405C177.083,405 176.25,405.833 176.25,406.667L176.25,410.833L160,410.833C171.25,404.583 183.75,400 196.25,397.917L202.917,396.667L197.5,392.5C187.917,385 170.417,371.667 169.167,358.333C168.75,354.167 170,350 172.083,346.25L177.917,336.25L167.5,341.667C138.75,357.5 138.333,384.167 151.667,410.833L147.5,410.833L147.5,408.333L142.083,408.333L142.083,410.833L135.833,410.833C134.167,412.083 134.167,413.75 135.833,415.417C153.75,418.75 172.083,418.75 190.417,415.417M169.167,344.583C158.75,362.917 173.75,377.917 195.833,395C181.25,397.5 167.5,402.5 155.417,410.417C139.583,378.75 146.25,357.083 169.167,344.583" style="fill:rgb(64,89,101);fill-rule:nonzero;"/>
                <path d="M262.917,239.167C262.083,239.167 261.25,239.583 261.25,240.417C261.25,241.25 261.667,242.083 262.5,242.083C263.333,242.083 264.167,241.667 264.167,240.833C264.167,240 263.75,239.583 262.917,239.167" style="fill:rgb(64,89,101);fill-rule:nonzero;"/>
                <path d="M414.167,252.917C417.083,228.75 434.167,212.083 454.167,199.167L457.917,197.083L390.833,112.5L389.583,112.083C381.667,110.417 373.75,109.167 365.833,107.917C341.667,104.583 324.167,102.5 309.167,100.833L296.667,100L296.25,100L292.5,99.583L290.833,99.583C281.667,99.167 272.5,98.75 263.333,98.333L257.083,98.333C223.333,97.5 193.75,98.75 172.5,100C165,100.417 117.917,105 109.167,106.25L107.917,106.25C97.083,107.917 75,111.25 67.083,112.5L0.417,197.083L4.167,199.167C24.167,211.667 41.25,228.75 44.167,252.917C47.083,277.083 33.333,304.583 24.167,326.25C12.083,355.417 0.833,384.167 0.833,416.25C0.833,422.917 1.667,430 3.75,436.667C10.417,457.917 26.667,475 44.167,488.75C65,504.167 87.083,517.917 110.417,529.583C134.167,542.083 158.333,554.167 181.25,567.917C196.667,577.083 216.667,590.833 225,606.667L228.333,613.333L231.667,606.667C240,590.833 260.417,577.083 275.417,567.917C298.333,554.167 322.5,542.083 346.25,529.583C369.583,517.917 391.667,504.167 412.5,488.75C430,475 446.25,457.917 452.917,436.667C455,430 455.833,423.333 455.833,416.25C455.833,384.167 444.583,355.417 432.5,326.25C424.167,304.583 411.25,277.083 414.167,252.917M228.75,605C196.667,543.75 4.583,507.917 4.583,416.25C4.583,324.583 101.667,257.083 5.833,195.833L68.75,115.833C181.667,96.667 288.333,96.667 388.75,115.833L451.667,195.833C355.833,257.083 452.5,324.583 452.5,416.25C452.5,507.917 260.833,544.167 228.75,605" style="fill:rgb(64,89,101);fill-rule:nonzero;"/>
                <path d="M133.75,18.333L147.917,16.667L133.75,10.417L133.75,18.333Z" style="fill:rgb(234,215,177);"/>
                <path d="M415.417,333.333C405,307.917 392.083,278.75 395.417,250.833C397.917,227.917 410.417,210 427.917,195.417L430.833,192.917L380,129.583L378.75,129.167C279.167,111.25 177.917,113.333 78.333,129.167L76.667,129.583L26.667,192.917L29.167,195.417C46.667,210 59.167,227.917 61.667,250.833C65,279.167 52.083,307.917 41.25,333.333C30.417,360 19.167,387.083 19.167,416.25C19.167,421.25 20,426.25 21.25,430.833C32.5,467.083 86.667,495.833 118.75,512.917C142.917,525.833 167.5,537.5 190.417,551.667C202.917,558.75 214.167,567.5 225,577.083L227.917,579.583L230.417,577.083C240.833,567.5 252.5,558.75 265,551.667C288.333,537.5 312.917,525.417 336.667,512.917C371.25,494.583 436.25,460.833 436.25,416.25C437.5,387.083 426.25,360 415.417,333.333M335.833,509.583C311.667,522.5 287.083,534.583 263.75,548.75C251.25,556.25 239.583,564.583 228.75,574.583C217.917,564.583 206.25,556.25 193.75,548.75C170.417,534.583 145.833,522.5 121.667,509.583C91.25,493.333 36.667,464.583 25.833,429.583C24.583,425 23.75,420.417 23.75,415.833C23.75,387.083 34.583,360.417 45.417,334.167C56.25,307.917 69.167,278.75 65.833,249.583C62.917,225.417 49.583,206.667 31.667,191.667L58.333,157.917L125,223.75C82.917,294.167 92.917,407.5 156.25,456.667C177.083,472.917 202.5,481.25 228.75,480.833C274.583,480.833 308.333,458.333 329.583,425.417L385.417,480.833C369.583,491.25 352.917,500.833 335.833,509.583M240,168.333L241.25,168.333C250,169.167 259.167,171.25 267.5,174.167L270,175L270.417,175L273.333,176.25L273.75,176.667L275.417,177.5C283.75,181.25 291.25,185.833 298.333,191.667L302.917,195.417L304.583,197.083C311.667,203.75 317.917,211.25 323.333,219.167L323.75,219.583C324.167,220.417 325,221.25 325.417,222.083L324.583,220.833L325.417,221.667L325.417,222.083C330.417,230 334.583,237.917 337.917,246.667L337.083,246.667C325.833,246.667 315.417,252.917 310,262.5C310,262.917 308.333,265.417 307.5,267.083C305.417,270.833 302.917,274.583 300.417,278.333C300.833,276.25 301.25,274.167 301.667,272.083C301.667,271.25 301.667,270.417 302.083,269.167C302.5,268.333 302.083,265.833 302.083,265.833C302.083,258.333 298.333,251.667 296.25,245C301.25,244.167 305.833,242.5 310.417,240.417C312.917,238.333 313.333,234.583 311.25,232.083C311.25,231.25 310.833,230.417 310.833,230C310.833,229.583 310,228.75 310,228.333C309.583,227.5 308.75,226.667 307.917,226.25C306.667,223.75 304.167,222.083 301.25,222.5C298.75,223.333 296.667,224.167 294.583,225C292.083,226.25 290,227.917 287.5,228.75C286.667,229.167 285.833,229.167 285,229.583C282.083,227.5 278.75,225.417 275.417,223.75C274.583,223.333 273.333,222.917 271.25,222.083L267.5,220.833C260.833,218.333 253.75,217.083 246.667,216.667C244.167,216.667 242.083,216.25 238.75,216.25L235,216.25C232.5,216.25 227.5,215.833 227.083,219.167C226.667,222.5 231.25,223.333 233.75,224.167L234.167,224.167L241.25,225.833C247.917,227.5 254.583,229.583 260.833,232.917C257.083,233.75 254.167,236.25 252.917,239.583L252.083,241.667C251.25,243.75 250.833,245.833 250.417,247.917L249.583,252.083L254.583,250.833C256.667,250.417 259.167,250 261.25,249.583C263.333,249.583 265.833,250 267.917,250.833C269.583,251.25 271.25,252.083 272.917,252.917L273.333,252.917C274.583,253.333 275.833,254.167 276.667,255L276.667,255.417C279.167,261.667 280.833,267.917 281.667,274.583L281.667,275C281.667,275.833 282.083,276.667 282.083,277.917C282.083,279.167 282.5,280.417 282.5,281.25L282.5,282.917C280.833,282.5 278.75,282.083 277.5,281.667L276.25,281.25L275.833,281.25L265.833,278.75C260.833,278.75 255.833,280.833 252.083,284.583C250.833,285.417 249.583,286.667 248.333,287.5C245.417,290 242.5,292.917 240,295.833C239.583,296.25 239.167,296.667 238.75,297.5C236.667,300 235,302.5 232.917,305L230.417,308.75C229.583,310.417 228.75,311.667 227.917,312.917C226.667,315 225.833,316.667 225,318.75L195,318.75L195,262.917L183.333,262.917L182.917,256.25L186.25,256.25L186.25,243.75L183.333,243.75L183.333,240L185.833,240L185.833,235.833C185.833,232.083 183.333,228.75 179.583,227.5L179.583,226.25C179.583,223.75 177.917,221.667 175.417,220.833C175,220.833 174.167,220.417 173.75,220.417L172.5,220.417C170,220.833 167.917,223.333 167.917,225.833L167.917,227.083C164.583,228.333 162.083,231.667 162.083,235.417L162.083,239.583L164.583,239.583L164.583,243.333L162.083,243.333L162.083,255.833L165.833,255.833L165.417,262.5L153.75,262.5L153.75,318.333L104.583,318.333L104.583,312.917C104.583,310 105,309.167 105,305.417L105,302.5C105.417,297.5 105.833,292.917 107.083,288.333C107.083,287.5 107.5,286.25 107.5,285.417C108.333,280.833 109.167,277.5 109.583,274.167C110,272.5 110.417,271.25 110.833,269.583L110.833,269.167C111.25,267.5 111.667,265.833 112.5,263.333C113.333,260.833 114.167,258.333 115,255.833C115.417,254.167 116.25,252.5 117.083,250.417L117.083,250C118.333,246.25 120,242.5 121.667,239.167L122.083,238.333C124.583,232.917 127.5,227.5 130.833,222.5C133.333,218.333 136.25,214.583 139.167,210.833L140.833,208.75L141.25,208.333C144.167,204.167 147.917,200.417 151.667,197.083L152.083,196.667C157.083,191.667 162.917,187.5 168.75,183.75L169.167,183.75C171.25,182.083 173.75,180.833 176.25,179.583C176.667,179.167 177.5,178.75 177.917,178.75C184.167,175.417 190.833,172.917 197.917,170.833L198.333,170.833C201.25,170 204.167,169.167 207.083,168.75C214.583,167.5 222.083,166.667 229.583,166.667L235.833,166.667L237.5,167.083C237.5,167.917 238.75,167.917 240,168.333M104.583,322.083L222.917,322.083C219.167,323.333 215.833,324.583 212.083,326.25L211.25,326.667L208.333,328.333C207.5,328.75 206.25,329.583 205.417,330C197.5,334.167 192.5,342.917 192.5,351.667C192.5,355.833 193.333,359.583 194.167,363.75L194.583,365C195,366.25 195.417,367.917 196.25,369.583C198.333,374.583 200.417,379.167 202.917,384.167L208.333,394.167C216.25,409.167 225,424.583 228.75,440.833C231.25,450.417 230.833,460.833 227.5,470.417C227.083,471.667 226.667,472.5 226.25,473.75C225.833,475 225.417,475.417 225,476.25C222.083,476.25 218.75,475.833 215.833,475.833C199.167,474.167 183.333,468.75 169.167,460C123.333,431.25 103.333,372.917 104.583,322.083ZM166.25,271.25L166.25,266.25L171.25,266.25L171.25,271.25L176.25,271.25L176.25,266.25L181.25,266.25L181.25,271.25L186.25,271.25L186.25,266.25L191.25,266.25L191.25,277.083L156.25,277.083L156.25,266.25L161.25,266.25L161.25,271.25L166.25,271.25ZM173.75,230C178.333,230 182.083,232.917 182.083,236.25L182.083,237.083L165,237.083L165,236.25C165.417,232.5 169.167,230 173.75,230M170.833,226.667C170.833,225.417 172.083,224.167 173.333,224.167C174.583,224.167 175.833,225.417 175.833,226.667L175.833,227.083L173.333,227.083C172.5,227.083 171.667,227.083 170.833,227.5L170.833,226.667ZM179.583,240L179.583,243.75L175.417,243.75L175.417,240L179.583,240ZM172.083,244.167L167.917,244.167L167.917,240.417L172.083,240.417L172.083,244.167ZM182.917,253.333L165,253.333L165,247.083L183.333,247.083L182.917,253.333ZM179.583,262.917L167.917,262.917L168.333,256.25L179.167,256.25L179.583,262.917ZM191.25,295.417L156.25,295.417L156.25,280.417L191.667,280.417L191.25,295.417ZM191.25,298.75L191.25,318.333L178.333,318.333L178.333,307.5C178.75,305 177.083,302.5 174.583,302.083C172.083,301.667 169.583,303.333 169.167,305.833L169.167,318.333L156.25,318.333L156.25,298.75L191.25,298.75ZM228.333,476.25C239.167,453.75 230.833,430.833 220,409.167C213.75,396.667 206.667,384.583 201.667,373.333C198.333,365.833 195,356.25 196.25,347.917C197.083,341.667 200.833,336.25 205.833,332.917C210,330.417 214.583,327.917 219.167,326.25L219.583,325.833L221.667,325C209.167,348.75 213.75,371.667 233.333,392.5C244.583,404.167 260.417,410.417 277.083,415.833L276.25,442.083L291.25,442.083L291.25,439.583C291.25,433.333 290.833,426.667 290.833,420.417C300.417,423.333 310,427.083 318.75,431.25C297.917,460.417 264.167,477.083 228.333,476.25ZM290.417,372.083L295.417,377.083L297.083,375.417L291.667,369.583C295.833,371.667 299.167,374.583 302.083,378.333L302.083,380L300.833,391.25L295,385.417L294.167,385L293.75,384.167C293.333,380 292.083,375.833 290.417,372.083M292.5,386.25L290,391.667C290,386.667 289.583,381.667 289.583,376.667C290.833,379.583 291.25,382.5 292.083,385.833L292.5,386.25ZM295.417,368.75L300.417,370.417L301.25,367.917L295,365.833C297.917,365.833 300.833,366.667 303.75,367.5L304.583,368.333L310.833,379.167L305.417,377.917C302.5,374.167 299.167,371.25 295.417,368.75M305.417,365L304.583,365C301.25,363.75 297.917,363.333 294.583,363.333L301.667,362.083L301.25,359.583L292.917,360.833L301.25,356.667L302.083,356.667L314.167,358.75L305.417,365ZM303.75,341.667L300.833,342.917L304.167,340.417L303.75,341.667ZM302.917,345L300.417,354.583L300.417,355L300,355C296.25,356.667 292.5,358.333 288.75,360.833L297.083,351.667L295,350L287.917,358.333C289.167,355.417 290.417,352.5 292.083,349.583L292.5,349.167L292.917,349.167L302.917,345ZM279.583,432.5L279.583,428.75L288.75,435.417L288.75,439.583L279.583,432.5ZM285.417,440.833L279.583,440.833L279.167,440.417L279.167,436.25L285.417,440.833ZM287.083,377.5L287.083,381.667L281.25,377.5L281.25,373.333L287.083,377.5ZM281.667,369.167L281.667,365.417L286.667,368.75L286.667,372.917L281.667,369.167ZM287.5,385.417L287.5,389.583L281.25,384.583L281.25,380.417L287.5,385.417ZM287.5,393.75L287.5,397.917L280.833,392.917L280.833,389.167L287.5,393.75ZM287.917,402.083L287.917,406.25L280.833,400.833L280.833,397.083L287.917,402.083ZM287.917,410.417L287.917,414.583L280,408.75L280,405L287.917,410.417ZM288.333,418.75L288.333,422.917L280,416.667L280,412.917L288.333,418.75ZM288.75,427.083L288.75,431.25L280,424.583L280,420.833L288.75,427.083ZM289.583,348.75C287.917,351.25 286.667,353.75 285.833,356.667L285.833,346.667L283.333,346.667L283.333,357.917C282.083,354.167 280.417,350.833 278.333,347.917L278.333,347.083L284.167,335.833L290,347.083L290,347.5L289.583,348.75ZM280,358.333L272.917,351.25L271.25,352.917L280.833,362.5C277.083,359.583 272.917,357.083 268.333,355.417L267.917,355L265.417,345L275,349.167L275.833,349.583L276.25,350C277.5,352.5 278.75,355.417 280,358.333M264.167,341.667L263.75,340.417L267.083,342.917L264.167,341.667ZM265.417,357.917L267.083,357.917L274.583,361.25L267.5,359.583L266.667,362.083L273.75,363.333C270.417,363.333 267.083,364.167 263.75,365L262.917,365L254.167,359.167L265.417,357.917ZM263.75,368.75L264.583,367.917C267.5,367.083 270.417,366.667 273.333,366.25L266.667,368.333L267.5,370.833L272.917,369.167C269.167,371.667 266.25,374.583 263.333,377.917L262.917,378.333L262.917,378.75L257.5,380L263.75,368.75ZM266.25,379.167C268.75,375.833 272.083,372.917 275.417,370.833L270.833,375.417L272.5,377.083L278.333,371.25C275.833,375.417 274.167,380 273.333,384.583L273.333,385L272.917,385.417L267.5,391.667L266.25,380.417L266.25,379.167ZM276.25,384.583C276.667,382.083 277.5,379.583 278.75,377.083L278.333,390.833L276.25,385.833L276.25,384.583ZM290.833,417.5C290.417,410.833 290.417,404.167 290,397.5L292.5,392.083L292.5,399.583L295,399.583L295,392.5L297.5,399.167L300,398.333L297.5,391.25L302.5,396.667L304.583,395L303.75,394.167L304.583,386.667L306.667,394.167L309.167,393.333L307.083,386.25L311.25,392.083L313.333,390.833L308.333,383.75L315,387.917L316.25,385.833L310,382.083L312.083,382.5L312.917,383.75L314.583,382.917L317.5,383.333L317.917,380.833L317.083,380.833L318.75,379.167L312.5,372.083L320.417,376.667L321.667,374.583L313.333,369.583L322.917,371.667L323.333,369.167L315.417,367.5L323.333,367.083L323.333,364.583L314.583,365L323.333,362.083L322.5,359.583L314.167,362.5L318.333,359.583L321.667,357.5L320,355.833L317.5,357.5L311.25,356.667L319.583,355.833L319.167,353.333L309.583,354.167L317.917,350.417L317.083,347.917L308.75,351.667L315.833,345.417L314.167,343.333L307.083,349.167L312.083,341.25L310,340L309.583,339.167L307.083,340L307.5,338.75L306.25,338.75L307.917,337.5L306.25,335.417L297.917,341.25L303.75,333.333L301.667,331.667L295,340L298.75,330L296.25,329.167L293.333,337.5L294.167,328.75L291.667,328.75L290.833,338.333L288.75,329.167L286.25,329.583L288.333,339.167L285,333.333L286.25,331.25L283.75,330L283.333,330.417L280.833,331.667L281.667,333.333L279.167,338.75L281.25,329.167L278.75,328.75L276.667,338.333L275.833,328.75L273.333,329.167L274.167,337.917L270.833,329.167L268.333,330L272.083,340L265.417,331.667L263.333,333.333L269.167,341.25L260.833,335.417L259.167,337.5L261.25,339.167L260,339.583L260.417,340.417L258.333,338.75L257.917,340L255.833,341.25L260.833,349.167L254.167,343.333L252.5,345.417L259.583,351.667L250.833,347.917L249.583,350L257.917,353.75L248.75,352.5L248.333,355L256.667,355.833L250.833,356.667L248.333,355.417L247.083,357.5L249.583,359.167L249.583,360L250.417,360L255,362.917L246.667,360L245.833,362.5L254.583,365.417L245.417,365L245.417,367.5L253.333,367.917L245.417,369.583L245.833,372.083L255.417,370L247.083,375L248.333,377.083L255.833,372.083L249.583,378.75L251.25,380.417L250.417,380.417L250.833,382.917L253.75,382.5L255.417,383.333L256.25,382.083L258.333,381.667L252.083,385.417L253.333,387.5L260,383.333L255.417,390L257.5,391.25L261.667,385.417L260,392.917L262.5,393.75L264.583,386.25L265.417,393.75L264.583,394.583L266.667,396.25L271.667,390.833L268.75,397.917L271.25,398.75L273.75,392.083L273.75,399.167L276.25,399.167L276.25,391.667L278.333,396.25L277.917,412.917C262.083,407.5 247.083,401.667 236.25,390.417C212.083,365 216.25,342.083 226.25,324.583L227.5,322.083L233.333,322.083L351.667,325C351.667,363.333 340.833,402.083 320,430.417C310.417,425.833 300.417,421.667 290,418.75M311.25,375L316.25,380.417L313.75,380L311.25,375ZM304.583,347.917L305.833,343.333L307.917,342.5L304.583,347.917ZM263.333,347.917L260,342.5L262.5,343.333L263.333,347.917ZM257.083,375L254.167,380L251.667,380.417L257.083,375ZM352.5,319.583L286.25,319.583C308.333,305.833 315,287.083 327.083,288.333C333.75,289.167 343.75,291.667 350,292.5C351.667,301.25 352.083,310.417 352.5,319.583ZM348.333,288.75C345,288.333 342.083,287.5 338.75,287.083C335.417,286.667 331.25,285.833 327.5,285.417C326.25,285 324.583,285 323.333,285.417C316.667,286.667 310.833,293.333 306.25,297.917C300,305 292.5,311.667 284.583,316.667L279.583,319.583L228.333,319.167C235,304.583 255,280.833 265.417,282.5C270.417,283.333 277.5,285.417 282.917,286.667C283.333,292.5 284.167,298.75 285,304.583C285.417,306.667 285.417,310.833 288.75,310.833C292.5,310.833 292.083,306.667 292.5,304.167C294.167,297.5 296.25,291.25 298.333,285C311.25,276.667 311.667,250.833 337.083,250.417L339.583,250.417C344.167,262.917 347.5,275.833 349.583,288.75L348.333,288.75ZM262.917,236.667L277.917,233.75C286.667,234.583 297.083,227.083 301.667,226.25C302.917,226.25 304.167,227.083 304.583,227.917L295.833,232.083L297.083,234.583L306.667,230C307.917,230.833 308.333,232.083 308.333,233.333L297.917,235.833L298.333,238.333L309.167,235.833C309.583,236.667 309.167,237.917 308.75,238.333C303.75,241.25 297.5,241.667 292.5,243.75C294.583,251.25 299.583,260.417 299.167,267.917L299.167,270.417L293.75,258.75L291.25,260L298.75,275C298.333,277.917 297.5,280.417 296.667,283.333L290.833,263.75L288.333,264.583L295.417,287.5C293.333,292.917 291.667,298.333 290.417,303.75C289.583,308.333 290.417,309.167 289.583,304.167C286.667,289.167 286.667,262.5 279.583,252.5C276.667,250.833 273.333,249.167 270,247.917C267.5,247.083 264.583,246.667 261.667,246.25C259.583,246.667 256.25,247.5 254.167,247.917C254.167,244.167 256.25,235.833 262.917,236.667M234.583,221.25C228.75,219.583 228.75,219.583 235,219.583C245.833,219.167 256.25,220.417 266.25,224.167C270.833,225.833 275,227.917 279.167,230.417L278.333,230.417L265.833,232.917C256.25,226.25 245.417,224.167 234.583,221.25M389.583,477.917L332.083,421.25C374.583,350.417 363.75,235.833 299.583,186.667C279.167,170.833 254.167,162.5 228.333,162.917C182.5,162.917 148.75,185.833 127.5,219.167L62.083,154.583L79.167,133.333C178.333,117.5 279.167,115.417 377.917,133.333L425.417,192.5C407.5,207.5 394.167,226.25 391.25,250.417C387.917,279.583 400.833,308.75 411.667,335C422.5,361.25 433.333,387.917 433.333,416.667C433.333,440 413.333,461.25 389.583,477.917" style="fill:rgb(64,89,101);fill-rule:nonzero;"/>
            </g>
        </g>
    </g>
    <defs>
        <linearGradient id="_Linear3" x1="0" y1="0" x2="1" y2="0" gradientUnits="userSpaceOnUse" gradientTransform="matrix(278.4,0,0,278.4,88.7506,20.0838)"><stop offset="0" style="stop-color:rgb(216,181,109);stop-opacity:1"/><stop offset="0.51" style="stop-color:rgb(237,217,177);stop-opacity:1"/><stop offset="0.53" style="stop-color:rgb(236,216,175);stop-opacity:1"/><stop offset="1" style="stop-color:rgb(216,181,107);stop-opacity:1"/></linearGradient>
        <linearGradient id="_Linear5" x1="0" y1="0" x2="1" y2="0" gradientUnits="userSpaceOnUse" gradientTransform="matrix(251.109,0,0,251.109,104.163,38.6046)"><stop offset="0" style="stop-color:rgb(183,150,68);stop-opacity:1"/><stop offset="0.51" style="stop-color:rgb(199,168,101);stop-opacity:1"/><stop offset="1" style="stop-color:rgb(184,150,66);stop-opacity:1"/></linearGradient>
        <linearGradient id="_Linear7" x1="0" y1="0" x2="1" y2="0" gradientUnits="userSpaceOnUse" gradientTransform="matrix(264.325,0,0,264.325,97.5913,75.8155)"><stop offset="0" style="stop-color:rgb(219,184,114);stop-opacity:1"/><stop offset="0.51" style="stop-color:rgb(224,194,139);stop-opacity:1"/><stop offset="1" style="stop-color:rgb(219,184,114);stop-opacity:1"/></linearGradient>
        <radialGradient id="_Radial9" cx="0" cy="0" r="1" gradientUnits="userSpaceOnUse" gradientTransform="matrix(234.175,0,0,230.912,229.888,353.552)"><stop offset="0" style="stop-color:rgb(1,166,104);stop-opacity:1"/><stop offset="0.39" style="stop-color:rgb(2,157,95);stop-opacity:1"/><stop offset="1" style="stop-color:rgb(3,134,71);stop-opacity:1"/></radialGradient>
        <radialGradient id="_Radial11" cx="0" cy="0" r="1" gradientUnits="userSpaceOnUse" gradientTransform="matrix(169.046,0,0,166.629,183.296,308.103)"><stop offset="0" style="stop-color:rgb(224,240,224);stop-opacity:1"/><stop offset="0.14" style="stop-color:rgb(215,237,225);stop-opacity:1"/><stop offset="0.37" style="stop-color:rgb(190,229,227);stop-opacity:1"/><stop offset="0.65" style="stop-color:rgb(150,215,231);stop-opacity:1"/><stop offset="0.99" style="stop-color:rgb(94,197,237);stop-opacity:1"/><stop offset="1" style="stop-color:rgb(92,196,237);stop-opacity:1"/></radialGradient>
        <linearGradient id="_Linear13" x1="0" y1="0" x2="1" y2="0" gradientUnits="userSpaceOnUse" gradientTransform="matrix(242.754,0,0,242.754,90.2305,398.811)"><stop offset="0" style="stop-color:white;stop-opacity:1"/><stop offset="0.18" style="stop-color:rgb(255,251,246);stop-opacity:1"/><stop offset="0.48" style="stop-color:rgb(254,239,221);stop-opacity:1"/><stop offset="0.86" style="stop-color:rgb(252,219,181);stop-opacity:1"/><stop offset="1" style="stop-color:rgb(251,211,164);stop-opacity:1"/></linearGradient>
        <linearGradient id="_Linear15" x1="0" y1="0" x2="1" y2="0" gradientUnits="userSpaceOnUse" gradientTransform="matrix(163.93,0,0,163.93,97.5993,400.167)"><stop offset="0" style="stop-color:rgb(0,174,180);stop-opacity:1"/><stop offset="0.18" style="stop-color:rgb(9,176,182);stop-opacity:1"/><stop offset="0.47" style="stop-color:rgb(34,181,186);stop-opacity:1"/><stop offset="0.84" style="stop-color:rgb(74,190,194);stop-opacity:1"/><stop offset="1" style="stop-color:rgb(94,194,198);stop-opacity:1"/></linearGradient>
        <linearGradient id="_Linear17" x1="0" y1="0" x2="1" y2="0" gradientUnits="userSpaceOnUse" gradientTransform="matrix(4.64651e-15,75.8833,-75.8833,4.64651e-15,289.499,245.89)"><stop offset="0" style="stop-color:rgb(25,165,118);stop-opacity:1"/><stop offset="0.33" style="stop-color:rgb(20,157,109);stop-opacity:1"/><stop offset="0.87" style="stop-color:rgb(6,134,84);stop-opacity:1"/><stop offset="1" style="stop-color:rgb(2,127,77);stop-opacity:1"/></linearGradient>
        <linearGradient id="_Linear19" x1="0" y1="0" x2="1" y2="0" gradientUnits="userSpaceOnUse" gradientTransform="matrix(148.531,0,0,148.531,203.063,375.793)"><stop offset="0" style="stop-color:rgb(233,182,139);stop-opacity:1"/><stop offset="0.3" style="stop-color:rgb(228,175,130);stop-opacity:1"/><stop offset="0.8" style="stop-color:rgb(214,156,105);stop-opacity:1"/><stop offset="1" style="stop-color:rgb(207,147,93);stop-opacity:1"/></linearGradient>
        <linearGradient id="_Linear21" x1="0" y1="0" x2="1" y2="0" gradientUnits="userSpaceOnUse" gradientTransform="matrix(2.08626e-15,34.0712,-34.0712,2.08626e-15,319.125,289.163)"><stop offset="0" style="stop-color:rgb(25,165,118);stop-opacity:1"/><stop offset="0.33" style="stop-color:rgb(20,157,109);stop-opacity:1"/><stop offset="0.87" style="stop-color:rgb(6,134,84);stop-opacity:1"/><stop offset="1" style="stop-color:rgb(2,127,77);stop-opacity:1"/></linearGradient>
        <linearGradient id="_Linear23" x1="0" y1="0" x2="1" y2="0" gradientUnits="userSpaceOnUse" gradientTransform="matrix(36.8334,0,0,36.8334,159.336,292.125)"><stop offset="0" style="stop-color:rgb(219,218,217);stop-opacity:1"/><stop offset="0.35" style="stop-color:rgb(226,226,226);stop-opacity:1"/><stop offset="0.92" style="stop-color:rgb(247,249,251);stop-opacity:1"/><stop offset="1" style="stop-color:rgb(250,253,255);stop-opacity:1"/></linearGradient>
        <linearGradient id="_Linear25" x1="0" y1="0" x2="1" y2="0" gradientUnits="userSpaceOnUse" gradientTransform="matrix(18.7292,0,0,18.7292,165.377,243.375)"><stop offset="0" style="stop-color:rgb(219,218,217);stop-opacity:1"/><stop offset="0.35" style="stop-color:rgb(226,226,226);stop-opacity:1"/><stop offset="0.92" style="stop-color:rgb(247,249,251);stop-opacity:1"/><stop offset="1" style="stop-color:rgb(250,253,255);stop-opacity:1"/></linearGradient>
    </defs>
</svg>
