<svg width="1427" height="300" viewBox="0 0 1427 300" fill="none" xmlns="http://www.w3.org/2000/svg">
<path d="M0.5 -20.5V293.5C55 287.5 192.5 107.5 288.5 144.8C384.5 182.5 480.5 192.5 576.5 187.5C672.5 182.5 768.5 160.5 864.5 128.8C960.5 96.5 1011.98 69.9677 1107.48 106.468C1168.44 129.768 1269.02 211.032 1349.5 249L1440.5 299.5H1392.5C1344.5 299.5 1248.5 299.5 1152.5 299.5C1056.5 299.5 960.5 299.5 864.5 299.5C768.5 299.5 672.5 299.5 576.5 299.5C480.5 299.5 384.5 299.5 288.5 299.5C192.5 299.5 96.5 299.5 48.5 299.5H0.5V-20.5Z" fill="#FFD700" fill-opacity="0.8"/>
</svg>
