<svg width="1440" height="410" viewBox="0 0 1440 410" fill="none" xmlns="http://www.w3.org/2000/svg">
<g clip-path="url(#clip0_8_6)">
<path d="M0 0L47.8896 41C95.7792 82 191.558 164 287.338 211.791C383.117 260.094 478.896 272.906 574.675 266.5C670.454 260.094 766.233 231.906 862.013 191.291C957.792 149.906 1053.57 96.0938 1149.35 123C1245.13 149.906 1303 285.334 1350.89 339.531L1364.85 354.906L1380.82 371.562C1380.82 371.562 1414.74 410 1436.69 410C1455.39 410 1388.8 410 1388.8 410C1340.91 410 1245.13 410 1149.35 410C1053.57 410 957.792 410 862.013 410C766.233 410 670.454 410 574.675 410C478.896 410 383.117 410 287.338 410C191.558 410 95.7792 410 47.8896 410H0V0Z" fill="#FFD700" fill-opacity="0.8"/>
</g>
<defs>
<clipPath id="clip0_8_6">
<rect width="1440" height="410" fill="white"/>
</clipPath>
</defs>
</svg>
